<?xml version="1.0" encoding="utf-8"?>
<!-- Generator: Adobe Illustrator 23.0.5, SVG Export Plug-In . SVG Version: 6.00 Build 0)  -->
<svg version="1.1" id="Capa_1" xmlns="http://www.w3.org/2000/svg" xmlns:xlink="http://www.w3.org/1999/xlink" x="0px" y="0px"
	 viewBox="0 0 841.89 595.28" style="enable-background:new 0 0 841.89 595.28;" xml:space="preserve">
<style type="text/css">
	.st0{fill:#264E98;}
	.st1{fill:#E2F3FD;}
	.st2{fill:#D9DDE1;}
</style>
<g>
	<path class="st0" d="M518.58,375.01c7.34-15.26,19.77-18.46,34.52-9.24c9.73,6.09,16.65,14.56,22.35,24.26
		c0.99,1.68,1.7,3.59,3.79,4.39c9.87,3.77,12.49,11.57,11.77,21.23c-0.89,12.11-12.02,24.12-22.03,24.89
		c-6.97,0.54-12.56-1.56-15.94-7.82c-1.81-3.36-5.03-2.55-7.66-3.56c-2.97-1.14-5.05-1.2-7.74,1.54c-6.46,6.58-20.1,3.66-25.63-5
		c-0.8-1.26-1.45-2.61-2.52-4.54c-5.02,4.58-10.83,7.97-11.2,15.81c-0.2,4.29-2.9,7.42-6.82,9.16c-14.12,6.26-28.76,7.87-43.9,4.57
		c-5.21-1.14-8.51-4.22-9.69-9.45c-0.42-1.86-1.2-3.36-2.81-4.5c-8.53-6.02-14.43-14.27-18.92-23.47c-1.61-3.31-3.56-4.17-6.93-4.05
		c-14.17,0.51-28.22,0.08-41.84-4.71c-8.47-2.98-16.12-7.08-22.39-13.56c-1.18-1.22-2.05-2.34-4.16-1.18
		c-16.38,9.03-31.23,4.76-44.83-6c-18.29-14.46-28.65-34.26-35.88-55.88c-6.17-18.45-9.14-37.48-8.07-56.94
		c0.96-17.44,4.43-34.27,14.86-48.92c2.83-3.98,6.2-7.43,10.24-10.13c1.78-1.18,2.23-2.24,1.89-4.44
		c-3.43-21.82,5.21-38.64,22.3-51.51c6.22-4.68,13.5-7,21.16-9.22c22.67-6.55,45.03-2.99,67.49-0.17
		c16.28,2.04,32.47,2.74,48.66-0.54c15.22-3.09,24.96,7.71,20.53,22.87c-0.82,2.8-1.05,4.33,2.39,5.87
		c11.01,4.9,17.21,14.25,21.48,25.12c4.43,11.29,8.1,22.84,10.98,34.6c1.77,7.25,5.6,13.15,10.73,18.24
		c10.25,10.19,17.13,22.24,18.92,36.54c1.91,15.23,0.49,30.32-4.85,44.92c-2.63,7.19-5.65,14.15-9.53,20.75
		c-0.61,1.04-2.46,2.36-0.09,3.64C515.7,362.09,518.36,367.79,518.58,375.01z M476.69,309.05c1.05-1.47,2.08-2.95,0.27-4.58
		c-0.61-0.77-1.3-1.49-1.81-2.32c-1.57-2.53-1.04-5.06,1.21-6.57c2.55-1.71,4.43-0.27,6.04,2.2c1.52,2.34,3.62,4.32,5.57,6.37
		c2.38,2.51,2.27,4.98-0.68,6.54c-5.44,2.89-7.34,7.41-7.23,13.21c0.17,8.78-1.05,17.16-6.91,24.23c-1.17,1.41-2.12,2.95-1.84,5.08
		c7.16,0.39,14.34-0.35,21.4,1.06c1.95,0.39,3.13-0.65,4.01-2.22c2.2-3.91,4.65-7.7,6.57-11.75c7.99-16.9,11.75-34.62,7.63-53.12
		c-2.86-12.85-9.38-23.47-21.54-30.23c-10.73-5.96-14.03-16.6-15.36-28.02c-1.63-13.96-6.9-26.25-16.67-36.5
		c-8.65-9.08-8.62-9.1-19.73-3.3c-2.65,1.38-5.32,2.75-8.04,4c-15.12,6.95-30.25,13.89-43.84,23.67
		c-5.18,3.73-10.89,6.31-16.83,8.51c-10.07,3.73-20.54,6.14-30.99,9.35c7.23,15.08,11.55,30.73,14.6,46.72
		c1.57,8.22,0.71,16.28-4.41,23.37c-1.89,2.62-4.01,5.17-7.66,4.72c-3.46-0.42-2.56-3.81-3.42-5.92
		c-2.35-5.74-5.65-10.05-12.51-10.47c-6.96-0.43-11.41,3.15-14.32,8.85c-4.28,8.39-2.66,16.47,2.2,24.12
		c4.71,7.41,11.68,13.22,14.97,21.7c0.98,2.52,3.92,3.21,6.5,2.4c2.44-0.76,3.49-2.82,3.23-5.44c-0.08-0.83,0.02-1.67-0.03-2.5
		c-0.17-2.43,0.78-3.82,3.38-3.75c2.72,0.08,3.67,2.15,3.2,4.09c-1.82,7.65,1.34,14.8,1.95,22.18c1.01,12.18,8.08,20.36,18.93,25.58
		c12.8,6.16,26.41,7.32,40.34,7.14c4.05-0.05,4.96-0.93,3.38-4.82c-1.04-2.55-0.9-5.56-1.55-8.3c-1.56-6.59,0.64-11.79,5.71-15.91
		c1.92-1.56,4.11-2.81,6.23-4.11c0.9-0.55,1.71-1.04,1.52-2.26c-0.12-0.82-0.2-1.59-1.38-1.64c-4.71-0.19-7.14-3.93-9.97-6.82
		c-1.64-1.67-2.59-2.63-4.56-0.52c-1.3,1.4-3.19,1.09-4.52-0.09c-1.25-1.1-2.31-2.68-1-4.39c4.95-6.51,7.22-13.71,6.52-21.94
		c-0.18-2.15,1.55-3.6,3.99-3.5c2.42,0.1,3.62,1.51,3.74,3.81c0.11,1.99,0.17,4.01,0,5.99c-0.24,2.75,0.96,3.47,3.5,3.16
		c5.61-0.69,11.26-1.07,16.85-1.87c16.39-2.34,30.91-8.36,41.57-21.7c1.05-0.93,1.92-1.94,1.5-3.5L476.69,309.05z M507.38,379.72
		c-29.06,11.49-58.46,14.21-88.82,9.27c0.55,4.35,2.09,8.35,3.77,12.23c4.84,11.13,10.37,21.88,21.39,28.26
		c2.97,1.72,4.64,3.6,4.27,7.03c-0.29,2.68,0.86,3.52,3.56,3.95c11.22,1.8,22.1,1.23,32.75-3.04c2.79-1.12,4.17-2.38,3.25-5.51
		c-0.62-2.11-0.65-4.09,1.36-5.86C502.86,413.78,505.75,397.16,507.38,379.72z M524.9,382.92c3.44,0.94,6.6,1.57,9.56,2.69
		c2.65,1,5.19,2.53,3.59,6.17c-1.61,3.65-4.15,4.16-7.64,2.46c-2.03-0.99-4.27-1.63-6.62-0.46c-1.62,0.81-2.86,1.99-2.62,3.74
		c0.26,1.91,2.03,1.74,3.57,1.77c2.78,0.06,5.6-0.46,8.28,1.01c1.97,1.09,2.25,2.65,2.13,4.59c-0.14,2.18-1.46,3.08-3.37,3.75
		c-1.45,0.51-2.58-0.34-3.89-0.33c-3.45,0.01-6.83,0.48-8.68,3.73c-1.61,2.83-0.91,5.83,0.83,8.47c2.14,3.24,5.4,4.28,9.07,3.93
		c2.25-0.22,3.65-0.97,1.22-3.3c-2.13-2.04-2.02-4.5-0.01-6.62c1.92-2.02,4.17-1.57,6.33-0.3c1.15,0.67,2.25,1.43,3.32,2.21
		c4.77,3.45,10.54,5.05,15.95,4.57c10.58-0.94,17.65-13.89,12.91-23.56c-5.04-10.26-12.34-18.93-22.4-24.87
		c-2.52-1.49-5.21-2.21-8.25-0.62c0.47,0.43,0.67,0.75,0.95,0.84c4.13,1.31,5.02,4.71,3.51,7.85c-1.65,3.41-4.81,2.66-7.98,1.01
		C531.61,380.06,528.17,379.48,524.9,382.92z M446.13,385.17c11.99,0.65,23.86-0.69,35.56-3.14c7.45-1.56,14.88-3.45,21.6-7.27
		c1.53-0.87,3.76-1.69,3.47-3.78c-0.26-1.84-2.21-2.93-3.95-3.47c-2.99-0.92-6.03-1.8-9.12-2.25c-15.09-2.2-30.15-1.23-45.08,1.32
		c-9.44,1.61-18.94,3.48-27.28,8.62c-1.93,1.19-5.25,1.69-4.68,5.24c0.67,4.18,4.75,4.29,7.25,4.5
		C431.27,385.57,438.72,385.17,446.13,385.17z M561.68,428.76c4.97,3.51,8.14,3.16,12.95-0.85c6.16-5.15,8.63-14.22,5.4-21.06
		C577.12,416.8,572.47,425.02,561.68,428.76z M443.9,354.61c-0.68-1.87-1.74-4.15-4.7-4.31c-3.49-0.19-6.63,0.64-8.11,4.21
		c-0.46,1.1-2.22,2.69,0.05,3.69c1.63,0.72,3.26,1.22,4.21-1.47c0.81-2.28,2.54-4.33,4.66-0.65c0.73,1.26,1.87,1.19,3.01,0.61
		C443.64,356.37,444.74,356.3,443.9,354.61z M447.91,348.73c1.99,1.84,0.18,5.38,2.73,6.41c1.9,0.76,5.27,0.78,6.06-1.57
		c0.62-1.85-1.75-3.61-3.68-4.67C451.5,348.06,449.91,348.06,447.91,348.73z"/>
	<path class="st1" d="M474.85,312.54c-10.67,13.34-25.18,19.37-41.57,21.7c-5.59,0.8-11.24,1.18-16.85,1.87
		c-2.54,0.31-3.74-0.41-3.5-3.16c0.18-1.98,0.11-4,0-5.99c-0.12-2.3-1.32-3.71-3.74-3.81c-2.44-0.1-4.17,1.35-3.99,3.5
		c0.7,8.23-1.57,15.43-6.52,21.94c-1.3,1.71-0.24,3.29,1,4.39c1.33,1.18,3.21,1.49,4.52,0.09c1.97-2.11,2.92-1.15,4.56,0.52
		c2.83,2.89,5.26,6.63,9.97,6.82c1.18,0.05,1.26,0.81,1.38,1.64c0.18,1.22-0.62,1.7-1.52,2.26c-2.12,1.3-4.31,2.55-6.23,4.11
		c-5.07,4.12-7.27,9.32-5.71,15.91c0.65,2.74,0.51,5.75,1.55,8.3c1.58,3.88,0.67,4.76-3.38,4.82c-13.93,0.18-27.54-0.98-40.34-7.14
		c-10.84-5.22-17.91-13.4-18.93-25.58c-0.61-7.38-3.78-14.53-1.95-22.18c0.46-1.95-0.48-4.01-3.2-4.09
		c-2.61-0.08-3.55,1.31-3.38,3.75c0.06,0.83-0.05,1.67,0.03,2.5c0.26,2.63-0.79,4.68-3.23,5.44c-2.58,0.81-5.53,0.12-6.5-2.4
		c-3.28-8.47-10.26-14.28-14.97-21.7c-4.85-7.65-6.48-15.73-2.2-24.12c2.91-5.7,7.36-9.27,14.32-8.85
		c6.86,0.42,10.16,4.73,12.51,10.47c0.86,2.11-0.04,5.49,3.42,5.92c3.65,0.45,5.77-2.11,7.66-4.72c5.12-7.09,5.98-15.14,4.41-23.37
		c-3.05-15.99-7.37-31.64-14.6-46.72c10.45-3.21,20.93-5.62,30.99-9.35c5.95-2.2,11.65-4.78,16.83-8.51
		c13.58-9.78,28.72-16.72,43.84-23.67c2.72-1.25,5.39-2.61,8.04-4c11.11-5.8,11.08-5.78,19.73,3.3
		c9.77,10.26,15.05,22.54,16.67,36.5c1.33,11.42,4.63,22.06,15.36,28.02c12.16,6.75,18.67,17.37,21.54,30.23
		c4.12,18.51,0.36,36.22-7.63,53.12c-1.91,4.05-4.37,7.84-6.57,11.75c-0.88,1.57-2.06,2.61-4.01,2.22
		c-7.06-1.4-14.24-0.66-21.4-1.06c-0.28-2.13,0.67-3.67,1.84-5.08c5.86-7.07,7.08-15.46,6.91-24.23c-0.11-5.8,1.79-10.33,7.23-13.21
		c2.95-1.56,3.06-4.04,0.68-6.54c-1.94-2.05-4.05-4.02-5.57-6.37c-1.6-2.48-3.48-3.91-6.04-2.2c-2.25,1.51-2.78,4.03-1.21,6.57
		c0.51,0.83,1.2,1.55,1.82,2.32c0.69,1.57-2.94,2.9-0.27,4.58c0,0-0.33-0.01-0.35-0.02C475.11,309.89,472.44,310.16,474.85,312.54z
		 M409.06,284.14c-0.5-10.14-4.17-21.51-11.42-31.57c-2.63-3.65-6.06-6.91-11.33-5.32c-5.15,1.55-5.35,6.22-6.2,10.41
		c-0.16,0.8-0.12,1.66-0.05,2.49c1.05,11.39,4.01,22.21,10.33,31.83c2.9,4.41,6.45,9.4,12.56,7.7
		C409.36,297.9,408.99,291.77,409.06,284.14z M452.09,239.16c-0.83,0.39-1.39,0.7-1.99,0.92c-4.82,1.77-9.41,4-13.03,7.71
		c-2.08,2.13-2.52,4.81-0.32,7.11c2.03,2.14,4.52,1.99,6.62-0.03c1.29-1.24,2.64-2.47,3.93-3.67c3.04-2.82,7.2-2.91,11.09-2.82
		c3.58,0.09,2.19,3.47,2.89,5.42c0.92,2.54,2.54,3.87,5.27,3.46c3.08-0.45,4.26-2.68,3.94-5.38c-0.98-8.24-4.22-15.31-11.37-20.1
		c-2.55-1.71-5.33-3.41-7.98-0.58C448.69,233.82,449.92,236.59,452.09,239.16z M443.29,203.38c-7.99,0.41-14.1,3.67-18.51,9.79
		c-1.71,2.38-1.7,5.2,1.05,6.93c2.66,1.67,5.23,1.17,6.26-2.12c0.38-1.21,1.07-1.25,1.86-1.78c4.72-3.15,9.6-3.93,15.07-2.09
		c2.49,0.84,5.17,0.38,5.94-2.77c0.71-2.9-0.22-5.09-3.37-6.21C448.73,204.13,445.84,203.68,443.29,203.38z M389.08,237.21
		c3.91,0.22,7.8,0.63,7.79-4.25c-0.01-4.96-4.07-4.84-7.62-4.92c-9.14-0.19-15.87,3.75-20.38,11.72c-1.8,3.18-3.04,6.3,0.96,8.47
		c3.8,2.07,5.63-0.69,7.22-3.66C379.71,239.58,383.89,237.08,389.08,237.21z M445.23,275.3c-2.34-0.17-5.41-0.22-8.21,1.79
		c-2.17,1.55-5.03,2.65-3.12,6.05c1.79,3.2,4.28,2.16,6.82,0.8c2.91-1.56,6.53-3.88,8.78-0.05c2.21,3.76-1.61,5.32-4.36,6.91
		c-1.97,1.14-2.77,2.93-1.6,5.06c0.97,1.75,2.51,2.51,4.61,1.98c5.74-1.45,10.34-7.77,9.74-13.48
		C457.23,278.29,453.38,275.34,445.23,275.3z M330.56,323.35c-2.78-2.55-4.88-2.44-6.2-0.18c-1.27,2.17,0.29,3.61,1.9,4.98
		c1.3,1.1,1.94,2.64,1.7,4.44c-0.27,1.97,0.07,3.82,2.32,4.22c2.09,0.37,3.84-0.62,4.91-2.51c3.47-6.09,3.7-12.5,1.91-19.13
		c-0.58-2.16-2.06-3-4.07-2.59c-1.98,0.4-3.17,1.74-3.04,3.91C330.11,318.27,330.29,320.05,330.56,323.35z M331.85,304.44
		c-0.24-0.48-0.41-0.96-0.69-1.36c-2.22-3.26-5.53-4.29-9.14-3.65c-3.6,0.64-6.35,2.82-7.57,6.45c-0.48,1.43,0.25,2.62,1.37,3.46
		c1.24,0.93,2.94,0.82,3.6-0.32c2.26-3.86,4.89-3.31,8.32-1.66C329.97,308.44,331.34,306.66,331.85,304.44z M474.07,261.88
		c-0.42,3.07,1.23,4.86,3.98,5.25c2.53,0.36,4.12-1.59,4.48-3.79c0.49-2.94-2.13-4.66-4.18-5.42
		C477.44,257.58,474.07,258.94,474.07,261.88z M493.37,273.29c3,0.35,4.23-1.72,4.25-4.13c0.01-2.31-1.6-3.93-4.17-3.93
		c-2.79,0-4.45,1.6-4.35,4.27C489.19,271.81,490.58,273.48,493.37,273.29z M480.14,278.19c-0.05-2.4-1.07-3.92-3.82-3.99
		c-2.89-0.07-4.35,1.3-4.29,4.13c0.06,2.57,1.49,3.95,4.08,3.93C478.67,282.24,480.09,280.96,480.14,278.19z M372,299.34
		c-2.23,0.54-4.02,1.52-4.13,4.16c-0.12,2.8,1.42,4.54,4.03,4.57c2.26,0.03,3.98-1.26,4.12-3.97
		C376.17,301.17,374.48,300,372,299.34z M374,319.25c-0.25-2.4-1.35-3.93-4.01-4.09c-2.68-0.16-4.18,1.2-4.34,3.67
		c-0.17,2.69,1.21,4.42,4.13,4.42C372.39,323.26,373.65,321.77,374,319.25z M391.03,309.73c-0.1-2.35-1.62-3.49-4.14-3.49
		c-2.63,0-3.9,1.35-3.89,3.98c0.01,2.92,1.56,4.18,4.35,4.05C390.01,314.16,391.07,312.57,391.03,309.73z M334.12,344.66
		c0.06-1.34-0.52-2.19-1.9-2.34c-1.41-0.15-2.17,0.66-2.31,1.94c-0.17,1.51,0.59,2.63,2.12,2.66
		C333.29,346.94,334.01,345.97,334.12,344.66z"/>
	<path class="st1" d="M507.38,379.72c-1.63,17.44-4.53,34.06-18.46,46.34c-2.01,1.77-1.98,3.75-1.36,5.86
		c0.92,3.13-0.46,4.39-3.25,5.51c-10.65,4.27-21.53,4.84-32.75,3.04c-2.7-0.43-3.86-1.27-3.56-3.95c0.38-3.43-1.3-5.31-4.27-7.03
		c-11.02-6.38-16.56-17.13-21.39-28.26c-1.69-3.88-3.22-7.88-3.77-12.23C448.93,393.93,478.32,391.2,507.38,379.72z M459.13,409.53
		c-2.51,2.15-2.82,3.69,0.84,5.07c3.13,1.19,5.82,0.74,8.51-0.84c3.72-2.19,6.64-0.66,7.13,3.75c0.42,3.71-2.43,7.27-6.06,7.81
		c-5.08,0.75-3.26-3.17-3.82-5.49c-0.11-0.48-0.12-0.99-0.16-1.48c-0.08-1.07-0.39-1.94-1.67-2.02c-1.73-0.12-1.78,1.06-1.78,2.28
		c-0.01,2.01,0.6,4.29-0.15,5.96c-1.7,3.8-1.53,5.39,3.14,4.3c1.73-0.4,3.59-0.24,5.37-0.52c4.75-0.73,7.14-4.04,8.19-8.29
		c0.99-4.02-0.18-7.82-3.7-10.06c-1.93-1.23-1.73-2.11-1.36-3.88c0.78-3.74-0.06-7.73-4-8.45c-3.57-0.65-8.22-1.21-10.53,3.48
		c-0.74,1.19-1.94-1.47-2.68,0.35c-0.49,1.21-0.44,2.35,0.6,3.02C458.94,405.75,459.15,407.55,459.13,409.53z"/>
	<path class="st1" d="M524.9,382.92c3.27-3.43,6.71-2.85,9.77-1.25c3.17,1.65,6.33,2.4,7.98-1.01c1.51-3.14,0.62-6.54-3.51-7.85
		c-0.28-0.09-0.48-0.42-0.95-0.84c3.04-1.58,5.74-0.86,8.25,0.62c10.05,5.94,17.36,14.61,22.4,24.87
		c4.74,9.67-2.32,22.62-12.91,23.56c-5.41,0.48-11.18-1.12-15.95-4.57c-1.08-0.78-2.18-1.54-3.32-2.21
		c-2.16-1.27-4.41-1.72-6.33,0.3c-2.01,2.12-2.12,4.58,0.01,6.62c2.43,2.34,1.03,3.09-1.22,3.3c-3.68,0.36-6.94-0.69-9.07-3.93
		c-1.74-2.63-2.44-5.64-0.83-8.47c1.85-3.25,5.23-3.72,8.68-3.73c1.3,0,2.43,0.85,3.89,0.33c1.91-0.68,3.23-1.58,3.37-3.75
		c0.12-1.94-0.16-3.51-2.13-4.59c-2.68-1.48-5.5-0.95-8.28-1.01c-1.54-0.03-3.31,0.14-3.57-1.77c-0.24-1.75,0.99-2.93,2.62-3.74
		c2.35-1.18,4.59-0.53,6.62,0.46c3.49,1.7,6.03,1.19,7.64-2.46c1.6-3.64-0.94-5.17-3.59-6.17
		C531.5,384.48,528.34,383.86,524.9,382.92z"/>
	<path class="st1" d="M446.13,385.17c-7.41,0-14.86,0.4-22.22-0.22c-2.5-0.21-6.59-0.32-7.25-4.5c-0.57-3.55,2.75-4.05,4.68-5.24
		c8.33-5.14,17.83-7.01,27.28-8.62c14.93-2.55,29.99-3.52,45.08-1.32c3.09,0.45,6.13,1.32,9.12,2.25c1.74,0.54,3.7,1.63,3.95,3.47
		c0.29,2.09-1.94,2.91-3.47,3.78c-6.72,3.82-14.16,5.7-21.6,7.27C469.99,384.48,458.12,385.82,446.13,385.17z"/>
	<path class="st1" d="M561.68,428.76c10.78-3.74,15.44-11.96,18.35-21.91c3.23,6.84,0.75,15.91-5.4,21.06
		C569.83,431.93,566.66,432.27,561.68,428.76z"/>
	<path class="st1" d="M443.9,354.61c0.84,1.69-0.25,1.77-0.88,2.08c-1.14,0.57-2.29,0.65-3.01-0.61c-2.12-3.68-3.84-1.63-4.66,0.65
		c-0.96,2.69-2.58,2.2-4.21,1.47c-2.27-1-0.5-2.59-0.05-3.69c1.48-3.57,4.62-4.39,8.11-4.21
		C442.16,350.45,443.22,352.73,443.9,354.61z"/>
	<path class="st1" d="M447.91,348.73c2-0.67,3.58-0.67,5.11,0.17c1.93,1.06,4.3,2.81,3.68,4.67c-0.79,2.35-4.16,2.33-6.06,1.57
		C448.09,354.12,449.9,350.58,447.91,348.73z"/>
	<path class="st2" d="M476.69,309.05c-2.67-1.69,0.96-3.01,0.27-4.58C478.76,306.1,477.73,307.58,476.69,309.05z"/>
	<path class="st2" d="M474.85,312.54c-2.42-2.38,0.26-2.65,1.48-3.52C476.77,310.6,475.9,311.61,474.85,312.54z"/>
	<path class="st0" d="M409.06,284.14c-0.07,7.63,0.3,13.75-6.1,15.54c-6.11,1.7-9.67-3.29-12.56-7.7
		c-6.32-9.62-9.28-20.44-10.33-31.83c-0.08-0.82-0.12-1.69,0.05-2.49c0.85-4.18,1.05-8.86,6.2-10.41c5.27-1.59,8.7,1.66,11.33,5.32
		C404.89,262.63,408.56,274,409.06,284.14z"/>
	<path class="st0" d="M452.09,239.16c-2.17-2.57-3.41-5.34-0.95-7.96c2.66-2.83,5.43-1.13,7.98,0.58
		c7.15,4.79,10.39,11.87,11.37,20.1c0.32,2.7-0.85,4.93-3.94,5.38c-2.73,0.4-4.35-0.92-5.27-3.46c-0.7-1.95,0.69-5.33-2.89-5.42
		c-3.89-0.1-8.05,0-11.09,2.82c-1.29,1.2-2.64,2.43-3.93,3.67c-2.1,2.02-4.59,2.16-6.62,0.03c-2.2-2.3-1.76-4.98,0.32-7.11
		c3.63-3.71,8.21-5.94,13.03-7.71C450.7,239.86,451.26,239.54,452.09,239.16z"/>
	<path class="st0" d="M443.29,203.38c2.55,0.3,5.44,0.75,8.28,1.76c3.15,1.12,4.08,3.31,3.37,6.21c-0.77,3.15-3.44,3.61-5.94,2.77
		c-5.46-1.84-10.34-1.07-15.07,2.09c-0.79,0.52-1.48,0.56-1.86,1.78c-1.03,3.29-3.6,3.8-6.26,2.12c-2.74-1.73-2.76-4.56-1.05-6.93
		C429.19,207.05,435.29,203.79,443.29,203.38z"/>
	<path class="st0" d="M389.08,237.21c-5.18-0.12-9.36,2.37-12.02,7.36c-1.59,2.98-3.42,5.73-7.22,3.66c-4-2.18-2.76-5.29-0.96-8.47
		c4.51-7.96,11.24-11.91,20.38-11.72c3.55,0.08,7.61-0.04,7.62,4.92C396.88,237.84,392.99,237.43,389.08,237.21z"/>
	<path class="st0" d="M445.23,275.3c8.15,0.03,12.01,2.98,12.65,9.05c0.6,5.71-4,12.04-9.74,13.48c-2.1,0.53-3.64-0.23-4.61-1.98
		c-1.17-2.13-0.38-3.92,1.6-5.06c2.75-1.59,6.57-3.14,4.36-6.91c-2.25-3.83-5.87-1.51-8.78,0.05c-2.54,1.36-5.03,2.4-6.82-0.8
		c-1.91-3.4,0.95-4.5,3.12-6.05C439.82,275.08,442.89,275.13,445.23,275.3z"/>
	<path class="st0" d="M330.56,323.35c-0.28-3.3-0.46-5.08-0.57-6.87c-0.13-2.17,1.07-3.51,3.04-3.91c2.01-0.41,3.49,0.43,4.07,2.59
		c1.79,6.63,1.56,13.04-1.91,19.13c-1.08,1.88-2.82,2.88-4.91,2.51c-2.24-0.4-2.59-2.25-2.32-4.22c0.25-1.8-0.4-3.34-1.7-4.44
		c-1.61-1.37-3.17-2.8-1.9-4.98C325.68,320.91,327.79,320.8,330.56,323.35z"/>
	<path class="st0" d="M331.85,304.44c-0.51,2.22-1.89,3.99-4.1,2.93c-3.43-1.65-6.06-2.21-8.32,1.66c-0.67,1.14-2.36,1.25-3.6,0.32
		c-1.12-0.84-1.85-2.03-1.37-3.46c1.21-3.64,3.96-5.82,7.57-6.45c3.61-0.64,6.91,0.39,9.14,3.65
		C331.44,303.48,331.62,303.96,331.85,304.44z"/>
	<path class="st0" d="M474.08,261.88c-0.01-2.93,3.36-4.29,4.27-3.95c2.06,0.76,4.67,2.48,4.18,5.42c-0.36,2.2-1.96,4.15-4.48,3.79
		C475.3,266.74,473.66,264.95,474.08,261.88z"/>
	<path class="st0" d="M493.37,273.29c-2.8,0.18-4.19-1.48-4.28-3.8c-0.11-2.67,1.56-4.26,4.35-4.27c2.57,0,4.19,1.62,4.17,3.93
		C497.6,271.58,496.37,273.64,493.37,273.29z"/>
	<path class="st0" d="M480.14,278.19c-0.05,2.77-1.47,4.05-4.03,4.07c-2.59,0.02-4.03-1.35-4.08-3.93c-0.06-2.84,1.4-4.2,4.29-4.13
		C479.07,274.27,480.09,275.8,480.14,278.19z"/>
	<path class="st0" d="M372,299.34c2.49,0.66,4.18,1.83,4.02,4.76c-0.14,2.71-1.86,4-4.12,3.97c-2.61-0.04-4.15-1.77-4.03-4.57
		C367.98,300.86,369.76,299.88,372,299.34z"/>
	<path class="st0" d="M374,319.25c-0.35,2.52-1.61,4.01-4.22,4.01c-2.92-0.01-4.3-1.74-4.13-4.42c0.16-2.47,1.66-3.84,4.34-3.67
		C372.64,315.32,373.75,316.85,374,319.25z"/>
	<path class="st0" d="M391.03,309.73c0.05,2.84-1.02,4.42-3.68,4.55c-2.79,0.13-4.34-1.14-4.35-4.05c-0.01-2.63,1.26-3.98,3.89-3.98
		C389.41,306.24,390.92,307.38,391.03,309.73z"/>
	<path class="st0" d="M334.12,344.66c-0.11,1.31-0.83,2.28-2.1,2.26c-1.52-0.03-2.29-1.14-2.12-2.66c0.15-1.29,0.9-2.09,2.31-1.94
		C333.6,342.46,334.18,343.32,334.12,344.66z"/>
	<path class="st0" d="M459.08,401.15c2.31-4.69,6.96-4.13,10.53-3.48c3.94,0.72,4.78,4.71,4,8.45c-0.37,1.76-0.57,2.65,1.36,3.88
		c3.52,2.24,4.68,6.04,3.7,10.06c-1.04,4.25-3.44,7.56-8.19,8.29c-1.77,0.27-3.63,0.12-5.37,0.52c-4.67,1.08-4.84-0.51-3.14-4.3
		c0.75-1.67,0.15-3.96,0.15-5.96c0-1.22,0.06-2.4,1.78-2.28c1.28,0.09,1.59,0.95,1.67,2.02c0.04,0.5,0.04,1,0.16,1.48
		c0.55,2.32-1.26,6.24,3.82,5.49c3.63-0.54,6.48-4.1,6.06-7.81c-0.5-4.42-3.42-5.94-7.13-3.75c-2.7,1.58-5.38,2.03-8.51,0.84
		c-3.66-1.39-3.35-2.92-0.84-5.07C463.92,406.71,462.06,403.93,459.08,401.15z M470.56,404.44c-0.34-1.71-0.52-3.96-2.83-3.97
		c-4.14-0.02,0.08,3.66-2.09,5.3c-1.47,1.12,1.02,1.2,1.89,1.41C469.74,407.73,470.53,406.52,470.56,404.44z"/>
	<path class="st1" d="M459.08,401.15c2.98,2.78,4.84,5.56,0.05,8.38c0.02-1.98-0.19-3.78-2.13-5.02c-1.04-0.66-1.09-1.81-0.6-3.02
		C457.14,399.68,458.34,402.34,459.08,401.15z"/>
	<path class="st1" d="M470.56,404.44c-0.03,2.08-0.82,3.29-3.03,2.75c-0.87-0.21-3.36-0.3-1.89-1.41c2.16-1.65-2.05-5.32,2.09-5.3
		C470.04,400.48,470.22,402.73,470.56,404.44z"/>
</g>
</svg>
